<mxfile host="65bd71144e">
    <diagram id="MCn3qKovNOwmCBAXKR-l" name="第 1 页">
        <mxGraphModel dx="1048" dy="787" grid="1" gridSize="10" guides="1" tooltips="1" connect="1" arrows="1" fold="1" page="0" pageScale="1" pageWidth="827" pageHeight="1169" math="0" shadow="0">
            <root>
                <mxCell id="0"/>
                <mxCell id="1" parent="0"/>
                <mxCell id="94" value="" style="rounded=0;whiteSpace=wrap;html=1;strokeColor=#FFFFFF;strokeWidth=2;fontSize=18;fillColor=none;dashed=1;" parent="1" vertex="1">
                    <mxGeometry x="50" y="370" width="630" height="440" as="geometry"/>
                </mxCell>
                <mxCell id="45" value="" style="group;strokeColor=#FFFFFF;strokeWidth=1;" parent="1" vertex="1" connectable="0">
                    <mxGeometry x="110" y="204" width="130" height="110" as="geometry"/>
                </mxCell>
                <mxCell id="46" value="" style="group;strokeColor=#FFFFFF;" parent="45" vertex="1" connectable="0">
                    <mxGeometry x="-28.26086956521739" y="-6.111111111111112" width="158.2608695652174" height="116.11111111111111" as="geometry"/>
                </mxCell>
                <mxCell id="47" value="" style="rounded=0;whiteSpace=wrap;html=1;strokeColor=#FFFFFF;" parent="46" vertex="1">
                    <mxGeometry width="158.2608695652174" height="116.11111111111111" as="geometry"/>
                </mxCell>
                <mxCell id="48" value="&lt;font style=&quot;font-size: 18px;&quot;&gt;卡方科技客户端&lt;/font&gt;" style="rounded=0;whiteSpace=wrap;html=1;strokeColor=#FFFFFF;" parent="46" vertex="1">
                    <mxGeometry y="6.830065359477126" width="158.2608695652174" height="109.28104575163401" as="geometry"/>
                </mxCell>
                <mxCell id="49" value="" style="group;strokeColor=#FFFFFF;" parent="46" vertex="1" connectable="0">
                    <mxGeometry x="136.21739130434784" y="1.2222222222222223" width="19.782608695652176" height="4.277777777777779" as="geometry"/>
                </mxCell>
                <mxCell id="50" value="" style="endArrow=none;html=1;" parent="49" edge="1">
                    <mxGeometry width="50" height="50" relative="1" as="geometry">
                        <mxPoint y="2.107777777777784" as="sourcePoint"/>
                        <mxPoint x="4.1647597254004545" y="2.107777777777784" as="targetPoint"/>
                    </mxGeometry>
                </mxCell>
                <mxCell id="51" value="" style="group;strokeColor=#FFFFFF;" parent="49" vertex="1" connectable="0">
                    <mxGeometry x="15.964912280701743" width="3.8176964149504196" height="4.277777777777779" as="geometry"/>
                </mxCell>
                <mxCell id="52" value="" style="endArrow=none;html=1;" parent="51" edge="1">
                    <mxGeometry width="50" height="50" relative="1" as="geometry">
                        <mxPoint y="4.277777777777779" as="sourcePoint"/>
                        <mxPoint x="3.817696414950413" as="targetPoint"/>
                    </mxGeometry>
                </mxCell>
                <mxCell id="53" value="" style="endArrow=none;html=1;" parent="51" edge="1">
                    <mxGeometry width="50" height="50" relative="1" as="geometry">
                        <mxPoint x="4.340218327968635e-15" as="sourcePoint"/>
                        <mxPoint x="3.8176964149504196" y="4.277777777777779" as="targetPoint"/>
                    </mxGeometry>
                </mxCell>
                <mxCell id="54" value="" style="group;strokeColor=#FFFFFF;" parent="49" vertex="1" connectable="0">
                    <mxGeometry x="8.329519450800909" width="3.470633104500382" height="4.277777777777779" as="geometry"/>
                </mxCell>
                <mxCell id="55" value="" style="rounded=0;whiteSpace=wrap;html=1;strokeColor=#FFFFFF;" parent="54" vertex="1">
                    <mxGeometry x="0.5784388507500638" width="2.892194253750319" height="3.564814814814814" as="geometry"/>
                </mxCell>
                <mxCell id="56" value="" style="rounded=0;whiteSpace=wrap;html=1;strokeColor=#FFFFFF;" parent="54" vertex="1">
                    <mxGeometry y="0.7129629629629628" width="2.892194253750319" height="3.564814814814814" as="geometry"/>
                </mxCell>
                <mxCell id="58" value="" style="group" parent="1" vertex="1" connectable="0">
                    <mxGeometry x="310" y="205" width="120" height="100" as="geometry"/>
                </mxCell>
                <mxCell id="44" value="" style="html=1;verticalLabelPosition=bottom;align=center;labelBackgroundColor=#ffffff;verticalAlign=top;strokeWidth=2;strokeColor=#FFFFFF;shadow=0;dashed=0;shape=mxgraph.ios7.icons.folder;" parent="58" vertex="1">
                    <mxGeometry width="120" height="100" as="geometry"/>
                </mxCell>
                <mxCell id="57" value="扫单文件夹" style="text;html=1;align=center;verticalAlign=middle;resizable=0;points=[];autosize=1;strokeColor=none;fillColor=none;fontSize=18;" parent="58" vertex="1">
                    <mxGeometry x="5" y="40" width="110" height="40" as="geometry"/>
                </mxCell>
                <mxCell id="61" value="" style="group" parent="1" vertex="1" connectable="0">
                    <mxGeometry x="500" y="206" width="150" height="110" as="geometry"/>
                </mxCell>
                <mxCell id="59" value="" style="html=1;verticalLabelPosition=bottom;align=center;labelBackgroundColor=#ffffff;verticalAlign=top;strokeWidth=2;strokeColor=#FFFFFF;shadow=0;dashed=0;shape=mxgraph.ios7.icons.window;fontSize=18;" parent="61" vertex="1">
                    <mxGeometry width="150" height="110" as="geometry"/>
                </mxCell>
                <mxCell id="60" value="Trader" style="text;html=1;align=center;verticalAlign=middle;resizable=0;points=[];autosize=1;strokeColor=none;fillColor=none;fontSize=18;" parent="61" vertex="1">
                    <mxGeometry x="35" y="40" width="80" height="40" as="geometry"/>
                </mxCell>
                <mxCell id="62" style="edgeStyle=none;html=1;exitX=1;exitY=0.5;exitDx=0;exitDy=0;entryX=0.008;entryY=0.54;entryDx=0;entryDy=0;entryPerimeter=0;fontSize=18;endArrow=none;endFill=0;strokeWidth=2;" parent="1" source="48" target="44" edge="1">
                    <mxGeometry relative="1" as="geometry"/>
                </mxCell>
                <mxCell id="63" style="edgeStyle=none;html=1;entryX=0.007;entryY=0.491;entryDx=0;entryDy=0;entryPerimeter=0;fontSize=18;endArrow=none;endFill=0;strokeWidth=2;" parent="1" target="59" edge="1">
                    <mxGeometry relative="1" as="geometry">
                        <mxPoint x="430" y="260" as="sourcePoint"/>
                    </mxGeometry>
                </mxCell>
                <mxCell id="64" value="1" style="text;html=1;align=center;verticalAlign=middle;resizable=0;points=[];autosize=1;strokeColor=none;fillColor=none;fontSize=18;" parent="1" vertex="1">
                    <mxGeometry x="260" y="230" width="30" height="40" as="geometry"/>
                </mxCell>
                <mxCell id="65" value="1" style="text;html=1;align=center;verticalAlign=middle;resizable=0;points=[];autosize=1;strokeColor=none;fillColor=none;fontSize=18;" parent="1" vertex="1">
                    <mxGeometry x="450" y="230" width="30" height="40" as="geometry"/>
                </mxCell>
                <mxCell id="74" value="" style="group" parent="1" vertex="1" connectable="0">
                    <mxGeometry x="305" y="430" width="130" height="90" as="geometry"/>
                </mxCell>
                <mxCell id="67" value="" style="rounded=0;whiteSpace=wrap;html=1;strokeColor=#FFFFFF;fontSize=18;" parent="74" vertex="1">
                    <mxGeometry width="130" height="80" as="geometry"/>
                </mxCell>
                <mxCell id="68" value="Router" style="rounded=0;whiteSpace=wrap;html=1;strokeColor=#FFFFFF;fontSize=18;" parent="74" vertex="1">
                    <mxGeometry y="10" width="130" height="80" as="geometry"/>
                </mxCell>
                <mxCell id="71" value="" style="group;flipV=1;flipH=1;" parent="74" vertex="1" connectable="0">
                    <mxGeometry x="10" y="20" width="8" height="17" as="geometry"/>
                </mxCell>
                <mxCell id="69" value="" style="endArrow=none;html=1;strokeWidth=3;fontSize=18;" parent="71" edge="1">
                    <mxGeometry width="50" height="50" relative="1" as="geometry">
                        <mxPoint x="8" y="8.5" as="sourcePoint"/>
                        <mxPoint y="17" as="targetPoint"/>
                    </mxGeometry>
                </mxCell>
                <mxCell id="70" value="" style="endArrow=none;html=1;strokeWidth=3;fontSize=18;" parent="71" edge="1">
                    <mxGeometry width="50" height="50" relative="1" as="geometry">
                        <mxPoint x="8" y="8.5" as="sourcePoint"/>
                        <mxPoint as="targetPoint"/>
                    </mxGeometry>
                </mxCell>
                <mxCell id="72" value="" style="endArrow=none;html=1;strokeWidth=3;fontSize=18;" parent="74" edge="1">
                    <mxGeometry width="50" height="50" relative="1" as="geometry">
                        <mxPoint x="21" y="37" as="sourcePoint"/>
                        <mxPoint x="34" y="37" as="targetPoint"/>
                    </mxGeometry>
                </mxCell>
                <mxCell id="75" style="edgeStyle=orthogonalEdgeStyle;html=1;entryX=0.5;entryY=0;entryDx=0;entryDy=0;strokeWidth=2;fontSize=18;endArrow=none;endFill=0;" parent="1" source="59" target="67" edge="1">
                    <mxGeometry relative="1" as="geometry">
                        <Array as="points">
                            <mxPoint x="575" y="400"/>
                            <mxPoint x="370" y="400"/>
                        </Array>
                    </mxGeometry>
                </mxCell>
                <mxCell id="76" value="1" style="text;html=1;align=center;verticalAlign=middle;resizable=0;points=[];autosize=1;strokeColor=none;fillColor=none;fontSize=18;" parent="1" vertex="1">
                    <mxGeometry x="470" y="366" width="30" height="40" as="geometry"/>
                </mxCell>
                <mxCell id="79" value="" style="group" parent="1" vertex="1" connectable="0">
                    <mxGeometry x="308.5" y="550" width="123" height="146" as="geometry"/>
                </mxCell>
                <mxCell id="77" value="" style="verticalLabelPosition=bottom;html=1;verticalAlign=top;strokeWidth=1;align=center;outlineConnect=0;dashed=0;outlineConnect=0;shape=mxgraph.aws3d.dataServer;strokeColor=#FFFFFF;aspect=fixed;fontSize=18;fillColor=#CCCCCC;" parent="79" vertex="1">
                    <mxGeometry width="123" height="106" as="geometry"/>
                </mxCell>
                <mxCell id="78" value="OMS" style="text;html=1;align=center;verticalAlign=middle;resizable=0;points=[];autosize=1;strokeColor=none;fillColor=none;fontSize=18;" parent="79" vertex="1">
                    <mxGeometry x="31.5" y="106" width="60" height="40" as="geometry"/>
                </mxCell>
                <mxCell id="80" style="edgeStyle=none;html=1;exitX=0.5;exitY=1;exitDx=0;exitDy=0;strokeWidth=2;fontSize=18;endArrow=none;endFill=0;" parent="1" source="68" target="77" edge="1">
                    <mxGeometry relative="1" as="geometry"/>
                </mxCell>
                <mxCell id="81" value="n" style="text;html=1;align=center;verticalAlign=middle;resizable=0;points=[];autosize=1;strokeColor=none;fillColor=none;fontSize=18;" parent="1" vertex="1">
                    <mxGeometry x="367" y="518" width="30" height="40" as="geometry"/>
                </mxCell>
                <mxCell id="82" value="" style="shape=actor;whiteSpace=wrap;html=1;strokeColor=#FFFFFF;strokeWidth=1;fontSize=18;fillColor=#FFFFFF;" parent="1" vertex="1">
                    <mxGeometry x="350" y="726" width="40" height="60" as="geometry"/>
                </mxCell>
                <mxCell id="83" style="edgeStyle=none;html=1;entryX=0.5;entryY=0;entryDx=0;entryDy=0;strokeWidth=2;fontSize=18;endArrow=none;endFill=0;" parent="1" source="78" target="82" edge="1">
                    <mxGeometry relative="1" as="geometry"/>
                </mxCell>
                <mxCell id="84" value="n" style="text;html=1;align=center;verticalAlign=middle;resizable=0;points=[];autosize=1;strokeColor=none;fillColor=none;fontSize=18;" parent="1" vertex="1">
                    <mxGeometry x="366" y="689" width="30" height="40" as="geometry"/>
                </mxCell>
                <mxCell id="87" value="" style="group" parent="1" vertex="1" connectable="0">
                    <mxGeometry x="100" y="563" width="150" height="120" as="geometry"/>
                </mxCell>
                <mxCell id="85" value="" style="shape=cylinder3;whiteSpace=wrap;html=1;boundedLbl=1;backgroundOutline=1;size=15;strokeColor=#FFFFFF;strokeWidth=2;fontSize=18;fillColor=none;" parent="87" vertex="1">
                    <mxGeometry x="45" width="60" height="80" as="geometry"/>
                </mxCell>
                <mxCell id="86" value="OMS Database" style="text;html=1;align=center;verticalAlign=middle;resizable=0;points=[];autosize=1;strokeColor=none;fillColor=none;fontSize=18;" parent="87" vertex="1">
                    <mxGeometry y="80" width="150" height="40" as="geometry"/>
                </mxCell>
                <mxCell id="89" style="edgeStyle=none;html=1;entryX=1;entryY=0.5;entryDx=0;entryDy=0;entryPerimeter=0;strokeWidth=2;fontSize=18;endArrow=halfCircle;endFill=0;" parent="1" source="77" target="85" edge="1">
                    <mxGeometry relative="1" as="geometry"/>
                </mxCell>
                <mxCell id="90" value="" style="edgeStyle=none;orthogonalLoop=1;jettySize=auto;html=1;strokeWidth=2;fontSize=18;endArrow=halfCircle;endFill=0;" parent="1" edge="1">
                    <mxGeometry width="100" relative="1" as="geometry">
                        <mxPoint x="1030" y="200" as="sourcePoint"/>
                        <mxPoint x="1130" y="200" as="targetPoint"/>
                        <Array as="points"/>
                    </mxGeometry>
                </mxCell>
                <mxCell id="91" value="DB Insersion" style="text;html=1;align=center;verticalAlign=middle;resizable=0;points=[];autosize=1;strokeColor=none;fillColor=none;fontSize=18;" parent="1" vertex="1">
                    <mxGeometry x="1160" y="180" width="130" height="40" as="geometry"/>
                </mxCell>
                <mxCell id="92" value="" style="rounded=0;whiteSpace=wrap;html=1;strokeColor=#FFFFFF;strokeWidth=2;fontSize=18;fillColor=none;dashed=1;" parent="1" vertex="1">
                    <mxGeometry x="50" y="160" width="630" height="170" as="geometry"/>
                </mxCell>
                <mxCell id="93" value="Windows" style="text;html=1;align=center;verticalAlign=middle;resizable=0;points=[];autosize=1;strokeColor=none;fillColor=none;fontSize=18;" parent="1" vertex="1">
                    <mxGeometry x="42" y="153" width="100" height="40" as="geometry"/>
                </mxCell>
                <mxCell id="95" value="Linux" style="text;html=1;align=center;verticalAlign=middle;resizable=0;points=[];autosize=1;strokeColor=none;fillColor=none;fontSize=18;" parent="1" vertex="1">
                    <mxGeometry x="41" y="366" width="70" height="40" as="geometry"/>
                </mxCell>
            </root>
        </mxGraphModel>
    </diagram>
</mxfile>